{"title":"Slam.Bang.2009.DVDRip.XViD-TA","uid":5234228,"size":814251292,"categoryP":"video","categoryS":"movies","magnet":"?xt=urn:btih:ff48c2c197026eebaf899b43250d129f74ddcf82&amp;dn=Slam.Bang.2009.DVDRip.XViD-TA&amp;tr=udp%3A%2F%2Ftracker.openbittorrent.com%3A80&amp;tr=udp%3A%2F%2Fopen.demonii.com%3A1337&amp;tr=udp%3A%2F%2Ftracker.coppersurfer.tk%3A6969&amp;tr=udp%3A%2F%2Fexodus.desync.com%3A6969","seeders":0,"leechers":0,"uploader":".BONE.","files":63,"time":1261465910,"description":" &lt;a href=&quot;http://www.imdb.com/title/tt1424845/&quot; rel=&quot;nofollow&quot; target=&quot;_NEW&quot;&gt;http://www.imdb.com/title/tt1424845/&lt;/a&gt;\n\nForced by a corrupt Chinese man to steal information off a computer, an affable IT guy\n- George - finds himself surrounded by violence and mayhem as he tries to get the disc with\ninformation to the crime lord. Thwarted each step of the way by ruthless killers determined\nto stop him, George must race against time to save his girlfriend's life. But he soon learns\nthat it will take more then guts to survive the day\n\nGeneral\nComplete name : Slam.Bang.2009.DVDRip.Xvid.TA.avi\nFormat : AVI\nFormat/Info : Audio Video Interleave\nFile size : 762 MiB\nDuration : 1h 22mn\nOverall bit rate : 1 288 Kbps\nWriting library : VirtualDub build 32661/release\n\nVideo\nID : 0\nFormat : MPEG-4 Visual\nFormat profile : AdvancedSimple@L5\nFormat settings, BVOP : Yes\nFormat settings, QPel : No\nFormat settings, GMC : No warppoints\nFormat settings, Matrix : Custom\nMuxing mode : Packed bitstream\nCodec ID : XVID\nCodec ID/Hint : XviD\nDuration : 1h 22mn\nBit rate : 1 150 Kbps\nWidth : 560 pixels\nHeight : 314 pixels\nDisplay aspect ratio : 16:9\nFrame rate : 23.976 fps\nResolution : 24 bits\nColorimetry : 4:2:0\nScan type : Progressive\nBits/(Pixel*Frame) : 0.273\nStream size : 681 MiB (89%)\nWriting library : XviD 1.2.1 (UTC 2008-12-04)\n\nAudio\nID : 1\nFormat : MPEG Audio\nFormat version : Version 1\nFormat profile : Layer 3\nCodec ID : 55\nCodec ID/Hint : MP3\nDuration : 1h 22mn\nBit rate mode : Constant\nBit rate : 128 Kbps\nChannel(s) : 2 channels\nSampling rate : 44.1 KHz\nResolution : 16 bits\nStream size : 75.8 MiB (10%)\nAlignment : Split accross interleaves\nInterleave, duration : 42 ms (1.00 video frame)\nInterleave, preload duration : 500 ms","torrent":{"xt":"urn:btih:ff48c2c197026eebaf899b43250d129f74ddcf82","amp;dn":"Slam.Bang.2009.DVDRip.XViD-TA","amp;tr":["udp%3A%2F%2Ftracker.openbittorrent.com%3A80","udp%3A%2F%2Fopen.demonii.com%3A1337","udp%3A%2F%2Ftracker.coppersurfer.tk%3A6969","udp%3A%2F%2Fexodus.desync.com%3A6969"],"infoHash":"ff48c2c197026eebaf899b43250d129f74ddcf82","infoHashBuffer":{"type":"Buffer","data":[255,72,194,193,151,2,110,235,175,137,155,67,37,13,18,159,116,221,207,130]},"announce":[],"urlList":[]}}